<?xml version="1.0" encoding="UTF-8"?>
<svg width="2048" height="2048" version="1.1" xmlns="http://www.w3.org/2000/svg" xmlns:xlink="http://www.w3.org/1999/xlink">

<defs>
  <mask id="pageMask">
    <rect x="0" y="0" width="2048" height="2048" fill="white" />
  </mask>
</defs>
<rect x="0" y="0" width="2048" height="2048" style="stroke-width:0; fill:rgb(39,39,39); fill-opacity:1.000" />
<line x1="0" y1="32" x2="2048" y2="32" mask="url(#pageMask)" style="stroke:rgb(135,135,135); stroke-width:2; stroke-opacity:1.000" />
<line x1="32" y1="0" x2="32" y2="2048" mask="url(#pageMask)" style="stroke:rgb(135,135,135); stroke-width:2; stroke-opacity:1.000" />
<line x1="0" y1="64" x2="2048" y2="64" mask="url(#pageMask)" style="stroke:rgb(135,135,135); stroke-width:2; stroke-opacity:1.000" />
<line x1="64" y1="0" x2="64" y2="2048" mask="url(#pageMask)" style="stroke:rgb(135,135,135); stroke-width:2; stroke-opacity:1.000" />
<line x1="0" y1="96" x2="2048" y2="96" mask="url(#pageMask)" style="stroke:rgb(135,135,135); stroke-width:2; stroke-opacity:1.000" />
<line x1="96" y1="0" x2="96" y2="2048" mask="url(#pageMask)" style="stroke:rgb(135,135,135); stroke-width:2; stroke-opacity:1.000" />
<line x1="0" y1="128" x2="2048" y2="128" mask="url(#pageMask)" style="stroke:rgb(135,135,135); stroke-width:2; stroke-opacity:1.000" />
<line x1="128" y1="0" x2="128" y2="2048" mask="url(#pageMask)" style="stroke:rgb(135,135,135); stroke-width:2; stroke-opacity:1.000" />
<line x1="0" y1="160" x2="2048" y2="160" mask="url(#pageMask)" style="stroke:rgb(135,135,135); stroke-width:2; stroke-opacity:1.000" />
<line x1="160" y1="0" x2="160" y2="2048" mask="url(#pageMask)" style="stroke:rgb(135,135,135); stroke-width:2; stroke-opacity:1.000" />
<line x1="0" y1="192" x2="2048" y2="192" mask="url(#pageMask)" style="stroke:rgb(135,135,135); stroke-width:2; stroke-opacity:1.000" />
<line x1="192" y1="0" x2="192" y2="2048" mask="url(#pageMask)" style="stroke:rgb(135,135,135); stroke-width:2; stroke-opacity:1.000" />
<line x1="0" y1="224" x2="2048" y2="224" mask="url(#pageMask)" style="stroke:rgb(135,135,135); stroke-width:2; stroke-opacity:1.000" />
<line x1="224" y1="0" x2="224" y2="2048" mask="url(#pageMask)" style="stroke:rgb(135,135,135); stroke-width:2; stroke-opacity:1.000" />
<line x1="0" y1="288" x2="2048" y2="288" mask="url(#pageMask)" style="stroke:rgb(135,135,135); stroke-width:2; stroke-opacity:1.000" />
<line x1="288" y1="0" x2="288" y2="2048" mask="url(#pageMask)" style="stroke:rgb(135,135,135); stroke-width:2; stroke-opacity:1.000" />
<line x1="0" y1="320" x2="2048" y2="320" mask="url(#pageMask)" style="stroke:rgb(135,135,135); stroke-width:2; stroke-opacity:1.000" />
<line x1="320" y1="0" x2="320" y2="2048" mask="url(#pageMask)" style="stroke:rgb(135,135,135); stroke-width:2; stroke-opacity:1.000" />
<line x1="0" y1="352" x2="2048" y2="352" mask="url(#pageMask)" style="stroke:rgb(135,135,135); stroke-width:2; stroke-opacity:1.000" />
<line x1="352" y1="0" x2="352" y2="2048" mask="url(#pageMask)" style="stroke:rgb(135,135,135); stroke-width:2; stroke-opacity:1.000" />
<line x1="0" y1="384" x2="2048" y2="384" mask="url(#pageMask)" style="stroke:rgb(135,135,135); stroke-width:2; stroke-opacity:1.000" />
<line x1="384" y1="0" x2="384" y2="2048" mask="url(#pageMask)" style="stroke:rgb(135,135,135); stroke-width:2; stroke-opacity:1.000" />
<line x1="0" y1="416" x2="2048" y2="416" mask="url(#pageMask)" style="stroke:rgb(135,135,135); stroke-width:2; stroke-opacity:1.000" />
<line x1="416" y1="0" x2="416" y2="2048" mask="url(#pageMask)" style="stroke:rgb(135,135,135); stroke-width:2; stroke-opacity:1.000" />
<line x1="0" y1="448" x2="2048" y2="448" mask="url(#pageMask)" style="stroke:rgb(135,135,135); stroke-width:2; stroke-opacity:1.000" />
<line x1="448" y1="0" x2="448" y2="2048" mask="url(#pageMask)" style="stroke:rgb(135,135,135); stroke-width:2; stroke-opacity:1.000" />
<line x1="0" y1="480" x2="2048" y2="480" mask="url(#pageMask)" style="stroke:rgb(135,135,135); stroke-width:2; stroke-opacity:1.000" />
<line x1="480" y1="0" x2="480" y2="2048" mask="url(#pageMask)" style="stroke:rgb(135,135,135); stroke-width:2; stroke-opacity:1.000" />
<line x1="0" y1="544" x2="2048" y2="544" mask="url(#pageMask)" style="stroke:rgb(135,135,135); stroke-width:2; stroke-opacity:1.000" />
<line x1="544" y1="0" x2="544" y2="2048" mask="url(#pageMask)" style="stroke:rgb(135,135,135); stroke-width:2; stroke-opacity:1.000" />
<line x1="0" y1="576" x2="2048" y2="576" mask="url(#pageMask)" style="stroke:rgb(135,135,135); stroke-width:2; stroke-opacity:1.000" />
<line x1="576" y1="0" x2="576" y2="2048" mask="url(#pageMask)" style="stroke:rgb(135,135,135); stroke-width:2; stroke-opacity:1.000" />
<line x1="0" y1="608" x2="2048" y2="608" mask="url(#pageMask)" style="stroke:rgb(135,135,135); stroke-width:2; stroke-opacity:1.000" />
<line x1="608" y1="0" x2="608" y2="2048" mask="url(#pageMask)" style="stroke:rgb(135,135,135); stroke-width:2; stroke-opacity:1.000" />
<line x1="0" y1="640" x2="2048" y2="640" mask="url(#pageMask)" style="stroke:rgb(135,135,135); stroke-width:2; stroke-opacity:1.000" />
<line x1="640" y1="0" x2="640" y2="2048" mask="url(#pageMask)" style="stroke:rgb(135,135,135); stroke-width:2; stroke-opacity:1.000" />
<line x1="0" y1="672" x2="2048" y2="672" mask="url(#pageMask)" style="stroke:rgb(135,135,135); stroke-width:2; stroke-opacity:1.000" />
<line x1="672" y1="0" x2="672" y2="2048" mask="url(#pageMask)" style="stroke:rgb(135,135,135); stroke-width:2; stroke-opacity:1.000" />
<line x1="0" y1="704" x2="2048" y2="704" mask="url(#pageMask)" style="stroke:rgb(135,135,135); stroke-width:2; stroke-opacity:1.000" />
<line x1="704" y1="0" x2="704" y2="2048" mask="url(#pageMask)" style="stroke:rgb(135,135,135); stroke-width:2; stroke-opacity:1.000" />
<line x1="0" y1="736" x2="2048" y2="736" mask="url(#pageMask)" style="stroke:rgb(135,135,135); stroke-width:2; stroke-opacity:1.000" />
<line x1="736" y1="0" x2="736" y2="2048" mask="url(#pageMask)" style="stroke:rgb(135,135,135); stroke-width:2; stroke-opacity:1.000" />
<line x1="0" y1="800" x2="2048" y2="800" mask="url(#pageMask)" style="stroke:rgb(135,135,135); stroke-width:2; stroke-opacity:1.000" />
<line x1="800" y1="0" x2="800" y2="2048" mask="url(#pageMask)" style="stroke:rgb(135,135,135); stroke-width:2; stroke-opacity:1.000" />
<line x1="0" y1="832" x2="2048" y2="832" mask="url(#pageMask)" style="stroke:rgb(135,135,135); stroke-width:2; stroke-opacity:1.000" />
<line x1="832" y1="0" x2="832" y2="2048" mask="url(#pageMask)" style="stroke:rgb(135,135,135); stroke-width:2; stroke-opacity:1.000" />
<line x1="0" y1="864" x2="2048" y2="864" mask="url(#pageMask)" style="stroke:rgb(135,135,135); stroke-width:2; stroke-opacity:1.000" />
<line x1="864" y1="0" x2="864" y2="2048" mask="url(#pageMask)" style="stroke:rgb(135,135,135); stroke-width:2; stroke-opacity:1.000" />
<line x1="0" y1="896" x2="2048" y2="896" mask="url(#pageMask)" style="stroke:rgb(135,135,135); stroke-width:2; stroke-opacity:1.000" />
<line x1="896" y1="0" x2="896" y2="2048" mask="url(#pageMask)" style="stroke:rgb(135,135,135); stroke-width:2; stroke-opacity:1.000" />
<line x1="0" y1="928" x2="2048" y2="928" mask="url(#pageMask)" style="stroke:rgb(135,135,135); stroke-width:2; stroke-opacity:1.000" />
<line x1="928" y1="0" x2="928" y2="2048" mask="url(#pageMask)" style="stroke:rgb(135,135,135); stroke-width:2; stroke-opacity:1.000" />
<line x1="0" y1="960" x2="2048" y2="960" mask="url(#pageMask)" style="stroke:rgb(135,135,135); stroke-width:2; stroke-opacity:1.000" />
<line x1="960" y1="0" x2="960" y2="2048" mask="url(#pageMask)" style="stroke:rgb(135,135,135); stroke-width:2; stroke-opacity:1.000" />
<line x1="0" y1="992" x2="2048" y2="992" mask="url(#pageMask)" style="stroke:rgb(135,135,135); stroke-width:2; stroke-opacity:1.000" />
<line x1="992" y1="0" x2="992" y2="2048" mask="url(#pageMask)" style="stroke:rgb(135,135,135); stroke-width:2; stroke-opacity:1.000" />
<line x1="0" y1="1056" x2="2048" y2="1056" mask="url(#pageMask)" style="stroke:rgb(135,135,135); stroke-width:2; stroke-opacity:1.000" />
<line x1="1056" y1="0" x2="1056" y2="2048" mask="url(#pageMask)" style="stroke:rgb(135,135,135); stroke-width:2; stroke-opacity:1.000" />
<line x1="0" y1="1088" x2="2048" y2="1088" mask="url(#pageMask)" style="stroke:rgb(135,135,135); stroke-width:2; stroke-opacity:1.000" />
<line x1="1088" y1="0" x2="1088" y2="2048" mask="url(#pageMask)" style="stroke:rgb(135,135,135); stroke-width:2; stroke-opacity:1.000" />
<line x1="0" y1="1120" x2="2048" y2="1120" mask="url(#pageMask)" style="stroke:rgb(135,135,135); stroke-width:2; stroke-opacity:1.000" />
<line x1="1120" y1="0" x2="1120" y2="2048" mask="url(#pageMask)" style="stroke:rgb(135,135,135); stroke-width:2; stroke-opacity:1.000" />
<line x1="0" y1="1152" x2="2048" y2="1152" mask="url(#pageMask)" style="stroke:rgb(135,135,135); stroke-width:2; stroke-opacity:1.000" />
<line x1="1152" y1="0" x2="1152" y2="2048" mask="url(#pageMask)" style="stroke:rgb(135,135,135); stroke-width:2; stroke-opacity:1.000" />
<line x1="0" y1="1184" x2="2048" y2="1184" mask="url(#pageMask)" style="stroke:rgb(135,135,135); stroke-width:2; stroke-opacity:1.000" />
<line x1="1184" y1="0" x2="1184" y2="2048" mask="url(#pageMask)" style="stroke:rgb(135,135,135); stroke-width:2; stroke-opacity:1.000" />
<line x1="0" y1="1216" x2="2048" y2="1216" mask="url(#pageMask)" style="stroke:rgb(135,135,135); stroke-width:2; stroke-opacity:1.000" />
<line x1="1216" y1="0" x2="1216" y2="2048" mask="url(#pageMask)" style="stroke:rgb(135,135,135); stroke-width:2; stroke-opacity:1.000" />
<line x1="0" y1="1248" x2="2048" y2="1248" mask="url(#pageMask)" style="stroke:rgb(135,135,135); stroke-width:2; stroke-opacity:1.000" />
<line x1="1248" y1="0" x2="1248" y2="2048" mask="url(#pageMask)" style="stroke:rgb(135,135,135); stroke-width:2; stroke-opacity:1.000" />
<line x1="0" y1="1312" x2="2048" y2="1312" mask="url(#pageMask)" style="stroke:rgb(135,135,135); stroke-width:2; stroke-opacity:1.000" />
<line x1="1312" y1="0" x2="1312" y2="2048" mask="url(#pageMask)" style="stroke:rgb(135,135,135); stroke-width:2; stroke-opacity:1.000" />
<line x1="0" y1="1344" x2="2048" y2="1344" mask="url(#pageMask)" style="stroke:rgb(135,135,135); stroke-width:2; stroke-opacity:1.000" />
<line x1="1344" y1="0" x2="1344" y2="2048" mask="url(#pageMask)" style="stroke:rgb(135,135,135); stroke-width:2; stroke-opacity:1.000" />
<line x1="0" y1="1376" x2="2048" y2="1376" mask="url(#pageMask)" style="stroke:rgb(135,135,135); stroke-width:2; stroke-opacity:1.000" />
<line x1="1376" y1="0" x2="1376" y2="2048" mask="url(#pageMask)" style="stroke:rgb(135,135,135); stroke-width:2; stroke-opacity:1.000" />
<line x1="0" y1="1408" x2="2048" y2="1408" mask="url(#pageMask)" style="stroke:rgb(135,135,135); stroke-width:2; stroke-opacity:1.000" />
<line x1="1408" y1="0" x2="1408" y2="2048" mask="url(#pageMask)" style="stroke:rgb(135,135,135); stroke-width:2; stroke-opacity:1.000" />
<line x1="0" y1="1440" x2="2048" y2="1440" mask="url(#pageMask)" style="stroke:rgb(135,135,135); stroke-width:2; stroke-opacity:1.000" />
<line x1="1440" y1="0" x2="1440" y2="2048" mask="url(#pageMask)" style="stroke:rgb(135,135,135); stroke-width:2; stroke-opacity:1.000" />
<line x1="0" y1="1472" x2="2048" y2="1472" mask="url(#pageMask)" style="stroke:rgb(135,135,135); stroke-width:2; stroke-opacity:1.000" />
<line x1="1472" y1="0" x2="1472" y2="2048" mask="url(#pageMask)" style="stroke:rgb(135,135,135); stroke-width:2; stroke-opacity:1.000" />
<line x1="0" y1="1504" x2="2048" y2="1504" mask="url(#pageMask)" style="stroke:rgb(135,135,135); stroke-width:2; stroke-opacity:1.000" />
<line x1="1504" y1="0" x2="1504" y2="2048" mask="url(#pageMask)" style="stroke:rgb(135,135,135); stroke-width:2; stroke-opacity:1.000" />
<line x1="0" y1="1568" x2="2048" y2="1568" mask="url(#pageMask)" style="stroke:rgb(135,135,135); stroke-width:2; stroke-opacity:1.000" />
<line x1="1568" y1="0" x2="1568" y2="2048" mask="url(#pageMask)" style="stroke:rgb(135,135,135); stroke-width:2; stroke-opacity:1.000" />
<line x1="0" y1="1600" x2="2048" y2="1600" mask="url(#pageMask)" style="stroke:rgb(135,135,135); stroke-width:2; stroke-opacity:1.000" />
<line x1="1600" y1="0" x2="1600" y2="2048" mask="url(#pageMask)" style="stroke:rgb(135,135,135); stroke-width:2; stroke-opacity:1.000" />
<line x1="0" y1="1632" x2="2048" y2="1632" mask="url(#pageMask)" style="stroke:rgb(135,135,135); stroke-width:2; stroke-opacity:1.000" />
<line x1="1632" y1="0" x2="1632" y2="2048" mask="url(#pageMask)" style="stroke:rgb(135,135,135); stroke-width:2; stroke-opacity:1.000" />
<line x1="0" y1="1664" x2="2048" y2="1664" mask="url(#pageMask)" style="stroke:rgb(135,135,135); stroke-width:2; stroke-opacity:1.000" />
<line x1="1664" y1="0" x2="1664" y2="2048" mask="url(#pageMask)" style="stroke:rgb(135,135,135); stroke-width:2; stroke-opacity:1.000" />
<line x1="0" y1="1696" x2="2048" y2="1696" mask="url(#pageMask)" style="stroke:rgb(135,135,135); stroke-width:2; stroke-opacity:1.000" />
<line x1="1696" y1="0" x2="1696" y2="2048" mask="url(#pageMask)" style="stroke:rgb(135,135,135); stroke-width:2; stroke-opacity:1.000" />
<line x1="0" y1="1728" x2="2048" y2="1728" mask="url(#pageMask)" style="stroke:rgb(135,135,135); stroke-width:2; stroke-opacity:1.000" />
<line x1="1728" y1="0" x2="1728" y2="2048" mask="url(#pageMask)" style="stroke:rgb(135,135,135); stroke-width:2; stroke-opacity:1.000" />
<line x1="0" y1="1760" x2="2048" y2="1760" mask="url(#pageMask)" style="stroke:rgb(135,135,135); stroke-width:2; stroke-opacity:1.000" />
<line x1="1760" y1="0" x2="1760" y2="2048" mask="url(#pageMask)" style="stroke:rgb(135,135,135); stroke-width:2; stroke-opacity:1.000" />
<line x1="0" y1="1824" x2="2048" y2="1824" mask="url(#pageMask)" style="stroke:rgb(135,135,135); stroke-width:2; stroke-opacity:1.000" />
<line x1="1824" y1="0" x2="1824" y2="2048" mask="url(#pageMask)" style="stroke:rgb(135,135,135); stroke-width:2; stroke-opacity:1.000" />
<line x1="0" y1="1856" x2="2048" y2="1856" mask="url(#pageMask)" style="stroke:rgb(135,135,135); stroke-width:2; stroke-opacity:1.000" />
<line x1="1856" y1="0" x2="1856" y2="2048" mask="url(#pageMask)" style="stroke:rgb(135,135,135); stroke-width:2; stroke-opacity:1.000" />
<line x1="0" y1="1888" x2="2048" y2="1888" mask="url(#pageMask)" style="stroke:rgb(135,135,135); stroke-width:2; stroke-opacity:1.000" />
<line x1="1888" y1="0" x2="1888" y2="2048" mask="url(#pageMask)" style="stroke:rgb(135,135,135); stroke-width:2; stroke-opacity:1.000" />
<line x1="0" y1="1920" x2="2048" y2="1920" mask="url(#pageMask)" style="stroke:rgb(135,135,135); stroke-width:2; stroke-opacity:1.000" />
<line x1="1920" y1="0" x2="1920" y2="2048" mask="url(#pageMask)" style="stroke:rgb(135,135,135); stroke-width:2; stroke-opacity:1.000" />
<line x1="0" y1="1952" x2="2048" y2="1952" mask="url(#pageMask)" style="stroke:rgb(135,135,135); stroke-width:2; stroke-opacity:1.000" />
<line x1="1952" y1="0" x2="1952" y2="2048" mask="url(#pageMask)" style="stroke:rgb(135,135,135); stroke-width:2; stroke-opacity:1.000" />
<line x1="0" y1="1984" x2="2048" y2="1984" mask="url(#pageMask)" style="stroke:rgb(135,135,135); stroke-width:2; stroke-opacity:1.000" />
<line x1="1984" y1="0" x2="1984" y2="2048" mask="url(#pageMask)" style="stroke:rgb(135,135,135); stroke-width:2; stroke-opacity:1.000" />
<line x1="0" y1="2016" x2="2048" y2="2016" mask="url(#pageMask)" style="stroke:rgb(135,135,135); stroke-width:2; stroke-opacity:1.000" />
<line x1="2016" y1="0" x2="2016" y2="2048" mask="url(#pageMask)" style="stroke:rgb(135,135,135); stroke-width:2; stroke-opacity:1.000" />
<line x1="0" y1="0" x2="2048" y2="0" mask="url(#pageMask)" style="stroke:rgb(183,183,183); stroke-width:6; stroke-opacity:1.000" />
<line x1="0" y1="0" x2="0" y2="2048" mask="url(#pageMask)" style="stroke:rgb(183,183,183); stroke-width:6; stroke-opacity:1.000" />
<line x1="0" y1="256" x2="2048" y2="256" mask="url(#pageMask)" style="stroke:rgb(183,183,183); stroke-width:6; stroke-opacity:1.000" />
<line x1="256" y1="0" x2="256" y2="2048" mask="url(#pageMask)" style="stroke:rgb(183,183,183); stroke-width:6; stroke-opacity:1.000" />
<line x1="0" y1="512" x2="2048" y2="512" mask="url(#pageMask)" style="stroke:rgb(183,183,183); stroke-width:6; stroke-opacity:1.000" />
<line x1="512" y1="0" x2="512" y2="2048" mask="url(#pageMask)" style="stroke:rgb(183,183,183); stroke-width:6; stroke-opacity:1.000" />
<line x1="0" y1="768" x2="2048" y2="768" mask="url(#pageMask)" style="stroke:rgb(183,183,183); stroke-width:6; stroke-opacity:1.000" />
<line x1="768" y1="0" x2="768" y2="2048" mask="url(#pageMask)" style="stroke:rgb(183,183,183); stroke-width:6; stroke-opacity:1.000" />
<line x1="0" y1="1024" x2="2048" y2="1024" mask="url(#pageMask)" style="stroke:rgb(183,183,183); stroke-width:6; stroke-opacity:1.000" />
<line x1="1024" y1="0" x2="1024" y2="2048" mask="url(#pageMask)" style="stroke:rgb(183,183,183); stroke-width:6; stroke-opacity:1.000" />
<line x1="0" y1="1280" x2="2048" y2="1280" mask="url(#pageMask)" style="stroke:rgb(183,183,183); stroke-width:6; stroke-opacity:1.000" />
<line x1="1280" y1="0" x2="1280" y2="2048" mask="url(#pageMask)" style="stroke:rgb(183,183,183); stroke-width:6; stroke-opacity:1.000" />
<line x1="0" y1="1536" x2="2048" y2="1536" mask="url(#pageMask)" style="stroke:rgb(183,183,183); stroke-width:6; stroke-opacity:1.000" />
<line x1="1536" y1="0" x2="1536" y2="2048" mask="url(#pageMask)" style="stroke:rgb(183,183,183); stroke-width:6; stroke-opacity:1.000" />
<line x1="0" y1="1792" x2="2048" y2="1792" mask="url(#pageMask)" style="stroke:rgb(183,183,183); stroke-width:6; stroke-opacity:1.000" />
<line x1="1792" y1="0" x2="1792" y2="2048" mask="url(#pageMask)" style="stroke:rgb(183,183,183); stroke-width:6; stroke-opacity:1.000" />
<line x1="0" y1="2048" x2="2048" y2="2048" mask="url(#pageMask)" style="stroke:rgb(183,183,183); stroke-width:6; stroke-opacity:1.000" />
<line x1="2048" y1="0" x2="2048" y2="2048" mask="url(#pageMask)" style="stroke:rgb(183,183,183); stroke-width:6; stroke-opacity:1.000" />

</svg>
